<svg xmlns="http://www.w3.org/2000/svg" viewBox="0 0 512 512">
  <rect width="512" height="512" rx="96" fill="#059669"/>
  <g transform="translate(96 96)">
    <path d="M160 0C71.6 0 0 71.6 0 160c0 88.4 71.6 160 160 160s160-71.6 160-160C320 71.6 248.4 0 160 0zm0 60c55.2 0 100 44.8 100 100s-44.8 100-100 100S60 215.2 60 160 104.8 60 160 60z" fill="#fff" opacity="0.15"/>
    <path d="M160 40c-22 0-42 8-58 22 16-2 32 2 46 12 18 12 30 32 32 54-8-2-16-2-24 0-22 4-42 18-54 38 12 24 32 42 56 50-8-12-12-26-12-40 0-32 22-58 52-66-2-30-18-56-42-70-2 0-2 0 4 0z" fill="#fff"/>
    <path d="M196 144c-30 0-54 24-54 54s24 54 54 54 54-24 54-54-24-54-54-54zm0 30c14 0 24 10 24 24s-10 24-24 24-24-10-24-24 10-24 24-24z" fill="#fbbf24"/>
  </g>
</svg>
